<svg version="1.2" xmlns="http://www.w3.org/2000/svg" viewBox="0 0 512 512" width="512" height="512">
	<title>wound-svg</title>
	<defs>
		<filter x="-50%" y="-50%" width="200%" height="200%" id="f1" ><feDropShadow dx="-23.382685902179844" dy="13.499999999999998" stdDeviation="5.416666666666667" flood-color="#000000" flood-opacity=".8"/></filter>
	</defs>
	<style>
		.s0 { filter: url(#f1);fill: #dd1515;stroke: #000000;paint-order:stroke fill markers;stroke-linejoin: round;stroke-width: 8 } 
	</style>
	<g id="Layer">
		<path id="Layer" fill-rule="evenodd" class="s0" d="m483 182.5c-5.4 53.4-77.9 24.1-92 73.3 3.4 27 12.6 34.4 12.6 52.8 0 9.3-6.2 15.9-12.7 15.9-6.4 0-12.9-7.1-12.9-16.8 0-19 9.3-24.8 12.7-51.2-0.3-32.8-100.4-35.9-115.8 1.8 5.2 34.7 14.5 47.9 14.5 75.8 0 15.8-8 27.2-16.4 27.2-8.3 0-16.8-12.2-16.8-28.8 0-29.4 9.9-40.3 15.1-75.4-14.1-50.4-116.1-77.9-116.1 34.8 0-48.7-53.2-86.4-59.7-2.8 6.4 77.8 23.3 95.1 23.3 151.7 0 29-12.1 40.9-23.7 40.9-11.9 0-23.3-10.5-23.3-38.1 0-53.9 16.1-76.2 22.7-152.7-11.3-113-55.8-198.1-67.5-243 98.8 161.4 404.8 180.5 456 134.6zm-309.2 192.3c0 11.2-9.1 19.4-18 19.4-9 0-17.6-7.7-17.6-18.3 0-21.5 13-29.9 17.6-61.7 4.6 31.8 18 38.2 18 60.6z"/>
	</g>
</svg>